<svg xmlns="http://www.w3.org/2000/svg" version="1.1" xmlns:xlink="http://www.w3.org/1999/xlink" xmlns:svgjs="http://svgjs.com/svgjs" width="62" height="62">
  <svg width="62" height="62" viewBox="0 0 62 62" fill="none" xmlns="http://www.w3.org/2000/svg">
    <path fill-rule="evenodd" clip-rule="evenodd" d="M31 41C31 41 47 27 47 15.5833C47 6.9769 39.8367 0 31 0C22.1633 0 15 6.9769 15 15.5833C15 27 31 41 31 41ZM31 22C34.866 22 38 18.866 38 15C38 11.134 34.866 8 31 8C27.134 8 24 11.134 24 15C24 18.866 27.134 22 31 22Z" fill="#9747FF"></path>
    <path d="M38 55C38 58.866 34.866 62 31 62C27.134 62 24 58.866 24 55C24 51.134 27.134 48 31 48C34.866 48 38 51.134 38 55Z" fill="#9747FF"></path>
  </svg>
  <style>
    @media (prefers-color-scheme: light) {
      :root {
        filter: none;
      }
    }
  </style>
</svg>
